<svg xmlns="http://www.w3.org/2000/svg" viewBox="0 0 320 240" fill="none">
  <rect width="320" height="240" rx="18" fill="#0f2438"/>
  <rect x="22" y="30" width="276" height="180" rx="18" fill="#122c44" stroke="#1f3a56" stroke-width="4"/>
  <rect x="52" y="58" width="216" height="124" rx="14" fill="#0b1622" stroke="#1f3a56" stroke-width="4"/>
  <path d="M86 132c10-20 28-32 54-32s44 12 54 32" stroke="#60a5fa" stroke-width="8" stroke-linecap="round"/>
  <circle cx="140" cy="110" r="18" fill="#041215" stroke="#10b981" stroke-width="6"/>
  <circle cx="180" cy="98" r="12" fill="#041215" stroke="#fbbf24" stroke-width="6"/>
  <path d="M112 156h96" stroke="#f472b6" stroke-width="8" stroke-linecap="round"/>
  <rect x="90" y="76" width="56" height="18" rx="8" fill="#60a5fa" opacity="0.8"/>
  <rect x="172" y="70" width="58" height="18" rx="8" fill="#f472b6" opacity="0.8"/>
  <path d="M244 152c12-8 16-22 10-34-6-12-16-18-30-16" stroke="#fbbf24" stroke-width="6" stroke-linecap="round"/>
  <path d="M236 122c-8 8-22 10-32 4" stroke="#10b981" stroke-width="6" stroke-linecap="round"/>
</svg>
