<svg xmlns="http://www.w3.org/2000/svg" viewBox="0 0 320 240" fill="none">
  <rect width="320" height="240" rx="18" fill="#0f2438"/>
  <rect x="26" y="36" width="268" height="168" rx="14" fill="#122c44" stroke="#1f3a56" stroke-width="4"/>
  <rect x="54" y="64" width="212" height="112" rx="12" fill="#0b1622" stroke="#1f3a56" stroke-width="4"/>
  <path d="M76 92h168" stroke="#60a5fa" stroke-width="10" stroke-linecap="round"/>
  <path d="M76 118h110" stroke="#10b981" stroke-width="10" stroke-linecap="round"/>
  <path d="M76 144h88" stroke="#9ca3af" stroke-width="10" stroke-linecap="round"/>
  <circle cx="236" cy="118" r="26" fill="#041215" stroke="#fbbf24" stroke-width="8"/>
  <path d="M236 108a10 10 0 1 1 0 20 10 10 0 0 1 0-20Zm0 26c-12 0-22 7-24 18" stroke="#fbbf24" stroke-width="6" stroke-linecap="round"/>
  <path d="M128 64v-10c0-10 8-18 18-18h28c10 0 18 8 18 18v10" stroke="#f472b6" stroke-width="6" stroke-linecap="round"/>
  <rect x="154" y="36" width="16" height="16" rx="4" fill="#f472b6"/>
</svg>
