<svg xmlns="http://www.w3.org/2000/svg" viewBox="0 0 320 240" fill="none">
  <rect width="320" height="240" rx="18" fill="#0f2438"/>
  <rect x="24" y="32" width="272" height="176" rx="16" fill="#122c44" stroke="#1f3a56" stroke-width="4"/>
  <rect x="52" y="62" width="216" height="116" rx="14" fill="#0b1622" stroke="#1f3a56" stroke-width="4"/>
  <path d="M86 120c0-32 26-58 58-58s58 26 58 58" stroke="#f472b6" stroke-width="8" stroke-linecap="round"/>
  <path d="M102 120c0-22 20-40 42-40s42 18 42 40" stroke="#60a5fa" stroke-width="8" stroke-linecap="round"/>
  <path d="M142 116c0-10 6-18 16-18s16 8 16 18" stroke="#10b981" stroke-width="8" stroke-linecap="round"/>
  <path d="M116 154h76" stroke="#fbbf24" stroke-width="8" stroke-linecap="round"/>
  <circle cx="232" cy="154" r="18" fill="#041215" stroke="#fbbf24" stroke-width="6"/>
  <path d="M232 146v12" stroke="#fbbf24" stroke-width="5" stroke-linecap="round"/>
  <path d="M226 152h12" stroke="#fbbf24" stroke-width="5" stroke-linecap="round"/>
</svg>
