<svg xmlns="http://www.w3.org/2000/svg" viewBox="0 0 64 64" role="img" aria-label="CC BY 4.0">
  <rect width="64" height="64" rx="12" fill="#000"/>
  <circle cx="32" cy="32" r="28" fill="#fff"/>
  <circle cx="32" cy="32" r="24" fill="#000"/>
  <g fill="#fff">
    <path d="M24.4 37.6a2.8 2.8 0 0 1-.7-2v-7.2a2.8 2.8 0 0 1 .7-2 2.8 2.8 0 0 1 2.1-.8c.8 0 1.5.3 2 .9.5.6.8 1.3.8 2.3v7.2c0 .9-.3 1.7-.8 2.3-.5.6-1.2.9-2 .9a2.8 2.8 0 0 1-2.1-.8Zm8.2 0a2.8 2.8 0 0 1-.7-2v-7.2c0-.9.3-1.7.7-2.3.5-.6 1.2-.9 2.1-.9.8 0 1.5.3 2 .9.5.6.8 1.4.8 2.3v7.2c0 .8-.3 1.6-.8 2.2-.5.6-1.2.9-2 .9-.9 0-1.6-.3-2.1-.8Z"/>
    <path d="M26 47c-.6-.5-.9-1.2-.9-2s.3-1.5.9-2a3 3 0 0 1 2-.8c.8 0 1.4.3 2 .8.6.5.9 1.2.9 2s-.3 1.5-.9 2a3 3 0 0 1-2 .8c-.8 0-1.4-.3-2-.8Zm6.1 0c-.6-.5-.9-1.2-.9-2s.3-1.5.9-2a3 3 0 0 1 2-.8c.8 0 1.4.3 2 .8.6.5.9 1.2.9 2s-.3 1.5-.9 2a3 3 0 0 1-2 .8c-.8 0-1.4-.3-2-.8Z"/>
  </g>
</svg>
