<svg xmlns="http://www.w3.org/2000/svg" viewBox="0 0 64 64" role="img" aria-label="Snapchat">
  <rect width="64" height="64" rx="12" fill="#FFFC00"/>
  <path fill="#000" d="M32 16c-4 0-7 2.6-7 6.4 0 .3 0 .7.1 1-1.3.8-2 2.3-2 3.9 0 2.6 1.8 5.1 4.7 5.1h8.4c2.9 0 4.7-2.5 4.7-5.1 0-1.6-.8-3.1-2-3.9.1-.3.1-.7.1-1C38 18.6 36 16 32 16Zm-3.4 20.6c-.7 0-1.4.6-1.4 1.4s.7 1.4 1.4 1.4h6.8c.7 0 1.3-.6 1.3-1.4s-.6-1.4-1.3-1.4h-6.8Zm-2 3.9c-.7 0-1.3.6-1.3 1.4s.6 1.4 1.3 1.4h10.8c.7 0 1.3-.6 1.3-1.4s-.6-1.4-1.3-1.4H26.6Z"/>
</svg>
