<svg xmlns="http://www.w3.org/2000/svg" viewBox="0 0 64 64" role="img" aria-label="Twitter">
  <rect width="64" height="64" rx="12" fill="#1DA1F2"/>
  <path fill="#fff" d="M49 21.5a9.8 9.8 0 0 1-2.8.8 4.8 4.8 0 0 0 2.1-2.6 9.6 9.6 0 0 1-3 1.1 4.8 4.8 0 0 0-8.3 4.4 13.6 13.6 0 0 1-9.9-5 4.8 4.8 0 0 0 1.5 6.4 4.7 4.7 0 0 1-2.2-.6v.1a4.8 4.8 0 0 0 3.8 4.7 4.8 4.8 0 0 1-2.2.1 4.8 4.8 0 0 0 4.5 3.4 9.7 9.7 0 0 1-6 2.1h-.8a13.7 13.7 0 0 0 7.4 2.2c8.9 0 13.8-7.4 13.8-13.8v-.6A9.7 9.7 0 0 0 49 21.5Z"/>
</svg>
