<svg xmlns="http://www.w3.org/2000/svg" viewBox="0 0 64 64" role="img" aria-label="WhatsApp">
  <rect width="64" height="64" rx="12" fill="#25D366"/>
  <path fill="#fff" d="M32 16a15 15 0 0 0-12.9 22.5L17 48l9.7-2A15 15 0 1 0 32 16Zm0 3.6a11.5 11.5 0 0 1 10 17.2l-.3.5a11.5 11.5 0 0 1-9.7 5.7 11.5 11.5 0 0 1-5.4-1.4l-.5-.3-5.8 1.2 1.2-5.6-.4-.6a11.5 11.5 0 0 1 10-16.7Z"/>
  <path fill="#25D366" d="M24.8 24.3c.3-.7.6-.6 1-.6l.8-.1c.3 0 .6 0 .8.7.3.7 1 2.5 1 2.7s.1.4 0 .7-.2.4-.4.6l-.7.9c-.2.2-.4.4-.2.7.2.3 1 1.6 2.3 2.6 1.5 1.3 2.8 1.7 3.2 1.9.3.1.5 0 .7-.2l1.1-1.3c.3-.4.5-.3.8-.2l2.5 1.2c.3.2.7.3.8.5.1.2.1 2.2-.5 2.8s-1.7 1-2.3 1.1-4 .4-7.7-2c-3.4-2.2-5.4-6-5.6-6.3-.3-.3-1.3-1.7-1.3-3.3 0-1.5.8-2.3 1-2.6Z"/>
</svg>
